<svg xmlns="http://www.w3.org/2000/svg" width="98" height="86" viewBox="0 0 98 86" fill="none">
  <path d="M81.1316 47.8221H56.9404L74.0465 30.7188L69.0807 25.7531L51.9747 42.8592V18.668H44.951V42.8592L27.8477 25.7531L22.882 30.7188L39.9881 47.8221H15.7969V54.8458H39.9881L22.882 71.9518L27.8477 76.9176L44.951 59.8115V84.0027H51.9747V59.8115L69.0807 76.9176L74.0465 71.9518L56.9404 54.8458H81.1316V47.8221Z" stroke="#838383" stroke-width="4" stroke-miterlimit="10"/>
  <path d="M31.0525 23.3338L30.7144 20.9896C29.7004 13.7813 28.9415 13.0258 21.7348 11.9999L19.3906 11.6618L21.7348 11.3238C28.9415 10.3097 29.7004 9.55089 30.7246 2.34251L31.0525 0L31.3905 2.34251C32.4164 9.55089 33.1719 10.3097 40.3803 11.334L42.7245 11.672L40.3803 12.01C33.1719 13.0258 32.4164 13.7813 31.3905 20.9896L31.0525 23.3338ZM23.9421 11.6618C28.9026 12.5576 30.1668 13.8218 31.0525 18.7823C31.9482 13.8218 33.2125 12.5576 38.173 11.6618C33.2125 10.7762 31.9482 9.51201 31.0525 4.5515C30.1668 9.51201 28.9026 10.7762 23.9421 11.6618Z" fill="#9C9C9C"/>
  <path d="M6.63828 72.8722L6.44587 71.5378C5.86863 67.4346 5.43666 67.0045 1.33439 66.4205L0 66.2281L1.33439 66.0357C5.43666 65.4585 5.86863 65.0265 6.45164 60.9233L6.63828 59.5898L6.8307 60.9233C7.41467 65.0265 7.84472 65.4585 11.9479 66.0415L13.2823 66.2339L11.9479 66.4263C7.84472 67.0045 7.41467 67.4346 6.8307 71.5378L6.63828 72.8722ZM2.59085 66.2281C5.41453 66.738 6.13416 67.4577 6.63828 70.2813C7.14818 67.4577 7.86781 66.738 10.6915 66.2281C7.86781 65.724 7.14818 65.0044 6.63828 62.1807C6.13416 65.0044 5.41453 65.724 2.59085 66.2281Z" fill="#9C9C9C"/>
  <path d="M88.9079 44.0469L87.7568 42.5419C84.235 37.904 83.4102 37.6727 77.9772 39.7693L76.2083 40.4483L77.7133 39.2972C82.35 35.776 82.5837 34.9499 80.4852 29.5164L79.7998 27.7526L80.9503 29.2565C84.4803 33.8897 85.3041 34.1248 90.7376 32.0263L92.5065 31.3473L91.0015 32.4984C86.3643 36.0214 86.1316 36.8439 88.2289 42.278L88.9079 44.0469ZM79.3867 38.6717C83.2003 37.3609 84.5766 37.7503 87.1313 40.8685C85.8205 37.0549 86.2099 35.6786 89.3242 33.1168C85.5145 34.4347 84.1382 34.0453 81.5765 30.931C82.8943 34.7407 82.5049 36.117 79.3867 38.6717Z" fill="#9C9C9C" fill-opacity="0.7"/>
  <path d="M78.0346 69.8581L78.4911 68.5124C79.9084 64.3811 79.7079 63.7707 76.1322 61.2628L74.9702 60.4447L76.3159 60.9012C80.4463 62.318 81.0585 62.1184 83.566 58.5413L84.3782 57.3775L83.9222 58.7223C82.5112 62.8568 82.709 63.4681 86.2861 65.9756L87.4481 66.7937L86.1024 66.3372C81.9706 64.9208 81.3612 65.1195 78.8527 68.6962L78.0346 69.8581ZM77.4047 61.682C79.8144 63.5097 80.1469 64.5296 79.272 67.4236C81.0997 65.0139 82.1196 64.6814 85.0164 65.5509C82.6039 63.7286 82.2714 62.7087 83.1409 59.8119C81.3186 62.2244 80.2987 62.5569 77.4047 61.682Z" fill="#9C9C9C" fill-opacity="0.4"/>
</svg>