<svg xmlns="http://www.w3.org/2000/svg" width="20" height="21" viewBox="0 0 20 21" fill="none">
  <path fill-rule="evenodd" clip-rule="evenodd" d="M8 4.50077C6.93913 4.50077 5.92172 4.92219 5.17157 5.67234C4.42143 6.42248 4 7.4399 4 8.50077C4 9.56163 4.42143 10.579 5.17157 11.3292C5.92172 12.0793 6.93913 12.5008 8 12.5008C9.06087 12.5008 10.0783 12.0793 10.8284 11.3292C11.5786 10.579 12 9.56163 12 8.50077C12 7.4399 11.5786 6.42248 10.8284 5.67234C10.0783 4.92219 9.06087 4.50077 8 4.50077ZM2 8.50077C1.99988 7.55647 2.22264 6.62548 2.65017 5.78351C3.0777 4.94154 3.69792 4.21236 4.4604 3.65529C5.22287 3.09822 6.10606 2.72898 7.03815 2.5776C7.97023 2.42622 8.92488 2.49698 9.82446 2.78412C10.724 3.07126 11.5432 3.56667 12.2152 4.23006C12.8872 4.89346 13.3931 5.7061 13.6919 6.6019C13.9906 7.4977 14.0737 8.45136 13.9343 9.38532C13.795 10.3193 13.4372 11.2072 12.89 11.9768L17.707 16.7938C17.8892 16.9824 17.99 17.235 17.9877 17.4972C17.9854 17.7594 17.8802 18.0102 17.6948 18.1956C17.5094 18.381 17.2586 18.4862 16.9964 18.4884C16.7342 18.4907 16.4816 18.3899 16.293 18.2078L11.477 13.3918C10.5794 14.03 9.52335 14.4089 8.42468 14.4869C7.326 14.5648 6.22707 14.3389 5.2483 13.8337C4.26953 13.3286 3.44869 12.5638 2.87572 11.6231C2.30276 10.6824 1.99979 9.6022 2 8.50077Z" fill="#6B7280"/>
</svg>