<svg xmlns="http://www.w3.org/2000/svg" width="18" height="20" viewBox="0 0 18 20" fill="none">
  <path fill-rule="evenodd" clip-rule="evenodd" d="M12.0008 17.5C12.001 18.0046 11.8104 18.4906 11.4673 18.8605C11.1242 19.2305 10.654 19.4572 10.1508 19.495L10.0008 19.5H8.00082C7.49625 19.5002 7.01026 19.3096 6.64028 18.9665C6.2703 18.6234 6.04367 18.1532 6.00583 17.65L6.00082 17.5H12.0008ZM9.00082 0.5C10.8158 0.49997 12.5598 1.20489 13.8651 2.46607C15.1703 3.72726 15.9346 5.44609 15.9968 7.26L16.0008 7.5V11.264L17.8228 14.908C17.9023 15.067 17.9421 15.2429 17.9388 15.4206C17.9355 15.5984 17.8891 15.7727 17.8037 15.9286C17.7183 16.0845 17.5963 16.2174 17.4483 16.3158C17.3003 16.4143 17.1306 16.4754 16.9538 16.494L16.8388 16.5H1.16283C0.984989 16.5001 0.809792 16.457 0.652246 16.3745C0.4947 16.292 0.359504 16.1725 0.258242 16.0264C0.15698 15.8802 0.0926725 15.7116 0.0708294 15.5351C0.0489862 15.3586 0.0702592 15.1795 0.132825 15.013L0.178825 14.908L2.00083 11.264V7.5C2.00083 5.64348 2.73832 3.86301 4.05108 2.55025C5.36383 1.2375 7.14431 0.5 9.00082 0.5ZM9.00082 2.5C7.71236 2.50007 6.47366 2.99754 5.54305 3.88866C4.61243 4.77978 4.06174 5.99575 4.00583 7.283L4.00083 7.5V11.264C4.00084 11.512 3.95472 11.7579 3.86483 11.989L3.78983 12.159L2.61983 14.5H15.3828L14.2128 12.158C14.1018 11.9363 14.033 11.6959 14.0098 11.449L14.0008 11.264V7.5C14.0008 6.17392 13.474 4.90215 12.5364 3.96447C11.5987 3.02678 10.3269 2.5 9.00082 2.5Z" fill="#404040"/>
</svg>