<svg xmlns="http://www.w3.org/2000/svg" width="28" height="28" viewBox="0 0 28 28" fill="none">
  <g clip-path="url(#clip0_901_4259)">
    <path d="M14.434 15.8662L8.309 12.3662C8.17688 12.2906 8.02726 12.2507 7.875 12.2507C7.72274 12.2507 7.57312 12.2906 7.441 12.3662L1.316 15.8662C1.18208 15.9427 1.07075 16.0533 0.99331 16.1866C0.915865 16.32 0.87505 16.4715 0.875 16.6257V23.6257C0.87505 23.78 0.915865 23.9314 0.99331 24.0648C1.07075 24.1982 1.18208 24.3087 1.316 24.3852L7.441 27.8852C7.57315 27.9608 7.72276 28.0006 7.875 28.0006C8.02724 28.0006 8.17685 27.9608 8.309 27.8852L14.434 24.3852C14.5679 24.3087 14.6792 24.1982 14.7567 24.0648C14.8341 23.9314 14.875 23.78 14.875 23.6257V16.6257C14.875 16.4715 14.8341 16.32 14.7567 16.1866C14.6792 16.0533 14.5679 15.9427 14.434 15.8662ZM7.875 14.1337L12.236 16.6257L7.875 19.1177L3.514 16.6257L7.875 14.1337ZM2.625 18.1334L7 20.6332V25.6181L2.625 23.1182V18.1334ZM8.75 25.6181V20.6332L13.125 18.1334V23.1182L8.75 25.6181ZM24.5 16.6257V21.0007C24.5 21.9659 23.7151 22.7507 22.75 22.7507H19.9745L21.3622 21.363L20.125 20.1257L16.625 23.6257L20.125 27.1257L21.3622 25.8885L19.9745 24.5007H22.75C24.6803 24.5007 26.25 22.931 26.25 21.0007V16.6257H24.5ZM15.316 13.1354L13.566 12.1352C13.4321 12.0587 13.3208 11.9482 13.2433 11.8148C13.1659 11.6814 13.125 11.53 13.125 11.3757V9.62573H14.875V10.8682L16.184 11.6164L15.316 13.1354ZM22.316 12.6165L21 13.3681V11.3757H19.25V13.3681L17.934 12.6156L17.066 14.1355L19.691 15.6352C19.8232 15.7108 19.9728 15.7506 20.125 15.7506C20.2772 15.7506 20.4268 15.7108 20.559 15.6352L23.184 14.1355L22.316 12.6156V12.6165ZM24.934 13.1354L24.066 11.6164L25.375 10.8682V9.62573H27.125V11.3757C27.125 11.53 27.0841 11.6814 27.0067 11.8148C26.9292 11.9482 26.8179 12.0587 26.684 12.1352L24.934 13.1354ZM22.309 7.63598L21.441 6.1161L20.125 6.8686L18.809 6.1161L17.941 7.63598L19.25 8.38323V9.62573H21V8.38323L22.309 7.63598ZM26.684 3.61623L24.059 2.1156L23.191 3.63548L24.486 4.37573L23.191 5.11598L24.059 6.63498L25.375 5.88335V7.87573H27.125V4.37573C27.125 4.22149 27.0841 4.07002 27.0067 3.93664C26.9292 3.80326 26.8179 3.69272 26.684 3.61623ZM21.441 2.63623L20.125 1.88285L18.809 2.63535L17.941 1.1146L19.691 0.115351C19.8232 0.0397623 19.9728 0 20.125 0C20.2772 0 20.4268 0.0397623 20.559 0.115351L22.309 1.11548L21.441 2.63448V2.63623ZM17.059 3.63548L16.191 2.11648L13.566 3.61623C13.4321 3.69272 13.3208 3.80326 13.2433 3.93664C13.1659 4.07002 13.125 4.22149 13.125 4.37573V7.87573H14.875V5.88335L16.191 6.63585L17.059 5.11598L15.764 4.37573L17.059 3.63548ZM7.875 0.875726L6.63775 2.11298L8.0255 3.50073H5.25C3.31975 3.50073 1.75 5.07048 1.75 7.00073V11.3757H3.5V7.00073C3.5 6.0356 4.28487 5.25073 5.25 5.25073H8.0255L6.63775 6.63848L7.875 7.87573L11.375 4.37573L7.875 0.875726Z" fill="black"/>
  </g>
  <defs>
    <clipPath id="clip0_901_4259">
      <rect width="28" height="28" fill="white"/>
    </clipPath>
  </defs>
</svg>