<svg xmlns="http://www.w3.org/2000/svg" width="21" height="21" viewBox="0 0 21 21" fill="none">
  <path d="M16.55 11V18.3H2.7V4.45H10C10.252 4.45 10.4936 4.34991 10.6718 4.17175C10.8499 3.99359 10.95 3.75196 10.95 3.5C10.95 3.24804 10.8499 3.00641 10.6718 2.82825C10.4936 2.65009 10.252 2.55 10 2.55H2.5C2.04913 2.55 1.61673 2.72911 1.29792 3.04792C0.979107 3.36673 0.8 3.79913 0.8 4.25V18.5C0.8 18.9509 0.979106 19.3833 1.29792 19.7021C1.61673 20.0209 2.04913 20.2 2.5 20.2H16.75C17.2009 20.2 17.6333 20.0209 17.9521 19.7021C18.2709 19.3833 18.45 18.9509 18.45 18.5V11C18.45 10.748 18.3499 10.5064 18.1718 10.3282C17.9936 10.1501 17.752 10.05 17.5 10.05C17.248 10.05 17.0064 10.1501 16.8282 10.3282C16.6501 10.5064 16.55 10.748 16.55 11ZM18.9029 2.09709L18.7615 2.23851L18.9029 2.09709C18.2325 1.42665 17.3231 1.05 16.375 1.05C15.6679 1.05 14.9767 1.25967 14.3888 1.6525C13.8009 2.04532 13.3427 2.60366 13.0721 3.25691C12.8015 3.91015 12.7308 4.62897 12.8687 5.32245C13.0066 6.01593 13.3471 6.65293 13.8471 7.15291C14.3471 7.65288 14.9841 7.99337 15.6776 8.13131C16.371 8.26925 17.0898 8.19845 17.7431 7.92787C18.3963 7.65729 18.9547 7.19907 19.3475 6.61116C19.7403 6.02326 19.95 5.33207 19.95 4.625C19.95 3.67685 19.5733 2.76754 18.9029 2.09709ZM17.7677 3.69442C17.9518 3.96987 18.05 4.29372 18.05 4.625C18.05 5.06924 17.8735 5.49528 17.5594 5.8094C17.2453 6.12353 16.8192 6.3 16.375 6.3C16.0437 6.3 15.7199 6.20176 15.4444 6.01771C15.169 5.83366 14.9543 5.57206 14.8275 5.266C14.7007 4.95993 14.6676 4.62314 14.7322 4.29822C14.7968 3.97331 14.9563 3.67485 15.1906 3.4406C15.4248 3.20634 15.7233 3.04681 16.0482 2.98218C16.3731 2.91755 16.7099 2.95072 17.016 3.0775C17.3221 3.20428 17.5837 3.41897 17.7677 3.69442Z" fill="#4D4D4D" stroke="#4D4D4D" stroke-width="0.4"/>
</svg>