<svg xmlns="http://www.w3.org/2000/svg" width="24" height="19" viewBox="0 0 24 19" fill="none">
  <path d="M5.5 5C5.5 4.60603 5.5776 4.21593 5.72836 3.85195C5.87913 3.48797 6.1001 3.15726 6.37868 2.87868C6.65726 2.6001 6.98797 2.37913 7.35195 2.22836C7.71593 2.0776 8.10603 2 8.5 2C8.89397 2 9.28407 2.0776 9.64805 2.22836C10.012 2.37913 10.3427 2.6001 10.6213 2.87868C10.8999 3.15726 11.1209 3.48797 11.2716 3.85195C11.4224 4.21593 11.5 4.60603 11.5 5C11.5 5.79565 11.1839 6.55871 10.6213 7.12132C10.0587 7.68393 9.29565 8 8.5 8C7.70435 8 6.94129 7.68393 6.37868 7.12132C5.81607 6.55871 5.5 5.79565 5.5 5ZM8.5 0C7.17392 0 5.90215 0.526784 4.96447 1.46447C4.02678 2.40215 3.5 3.67392 3.5 5C3.5 6.32608 4.02678 7.59785 4.96447 8.53553C5.90215 9.47322 7.17392 10 8.5 10C9.82608 10 11.0979 9.47322 12.0355 8.53553C12.9732 7.59785 13.5 6.32608 13.5 5C13.5 3.67392 12.9732 2.40215 12.0355 1.46447C11.0979 0.526784 9.82608 0 8.5 0ZM15.5 0H14.5V2H15.5C15.894 2 16.2841 2.0776 16.6481 2.22836C17.012 2.37913 17.3427 2.6001 17.6213 2.87868C17.8999 3.15726 18.1209 3.48797 18.2716 3.85195C18.4224 4.21593 18.5 4.60603 18.5 5C18.5 5.39397 18.4224 5.78407 18.2716 6.14805C18.1209 6.51203 17.8999 6.84274 17.6213 7.12132C17.3427 7.3999 17.012 7.62087 16.6481 7.77164C16.2841 7.9224 15.894 8 15.5 8H14.5V10H15.5C16.8261 10 18.0979 9.47322 19.0355 8.53553C19.9732 7.59785 20.5 6.32608 20.5 5C20.5 3.67392 19.9732 2.40215 19.0355 1.46447C18.0979 0.526784 16.8261 0 15.5 0ZM0 17C0 15.6739 0.526784 14.4021 1.46447 13.4645C2.40215 12.5268 3.67392 12 5 12H12C13.3261 12 14.5979 12.5268 15.5355 13.4645C16.4732 14.4021 17 15.6739 17 17V19H15V17C15 16.2044 14.6839 15.4413 14.1213 14.8787C13.5587 14.3161 12.7956 14 12 14H5C4.20435 14 3.44129 14.3161 2.87868 14.8787C2.31607 15.4413 2 16.2044 2 17V19H0V17ZM24 17C24 16.3434 23.8707 15.6932 23.6194 15.0866C23.3681 14.48 22.9998 13.9288 22.5355 13.4645C22.0712 13.0002 21.52 12.6319 20.9134 12.3806C20.3068 12.1293 19.6566 12 19 12H18V14H19C19.7956 14 20.5587 14.3161 21.1213 14.8787C21.6839 15.4413 22 16.2044 22 17V19H24V17Z" fill="#4D4D4D"/>
</svg>