<svg xmlns="http://www.w3.org/2000/svg" width="49" height="46" viewBox="0 0 49 46" fill="none">
<g clip-path="url(#clip0_1484_34555)">
<path d="M18.9335 21.2094C21.3953 21.2094 23.7563 20.2314 25.497 18.4907C27.2378 16.7499 28.2157 14.389 28.2157 11.9272C28.2157 9.46541 27.2378 7.10445 25.497 5.36371C23.7563 3.62296 21.3953 2.64502 18.9335 2.64502C16.4717 2.64502 14.1108 3.62296 12.37 5.36371C10.6293 7.10445 9.65135 9.46541 9.65135 11.9272C9.65135 14.389 10.6293 16.7499 12.37 18.4907C14.1108 20.2314 16.4717 21.2094 18.9335 21.2094ZM18.9335 21.2094C22.6705 21.2094 25.936 22.6203 28.2584 24.9649M18.9335 21.2094C11.5078 21.2094 5.93848 26.7787 5.93848 34.2044V43.4866H18.9335M46.7801 28.6351L41.2108 23.0658L30.0721 34.2044M36.5697 27.7069L42.139 33.2762M22.6464 36.9891C22.6469 38.2205 23.1365 39.4012 24.0076 40.2716C24.8787 41.142 26.0598 41.6307 27.2912 41.6302C28.5226 41.6297 29.7033 41.14 30.5737 40.269C31.4441 39.3979 31.9328 38.2168 31.9323 36.9854C31.9318 35.754 31.4422 34.5732 30.5711 33.7029C29.7 32.8325 28.5189 32.3438 27.2875 32.3443C26.0561 32.3448 24.8753 32.8344 24.005 33.7055C23.1346 34.5765 22.6459 35.7577 22.6464 36.9891Z" stroke="#5D5D5D" stroke-width="4"/>
</g>
<defs>
<clipPath id="clip0_1484_34555">
<rect width="48.0719" height="44.5545" fill="white" transform="translate(0.922852 0.784912)"/>
</clipPath>
</defs>
</svg>