<svg width="36" height="36" viewBox="0 0 36 36" fill="none" xmlns="http://www.w3.org/2000/svg">
<g id="tdesign:user">
<path id="Vector" d="M17.9969 6.26927C16.6354 6.26927 15.3297 6.8101 14.3671 7.77279C13.4044 8.73548 12.8635 10.0412 12.8635 11.4026C12.8635 12.764 13.4044 14.0697 14.3671 15.0324C15.3297 15.9951 16.6354 16.5359 17.9969 16.5359C19.3583 16.5359 20.664 15.9951 21.6267 15.0324C22.5894 14.0697 23.1302 12.764 23.1302 11.4026C23.1302 10.0412 22.5894 8.73548 21.6267 7.77279C20.664 6.8101 19.3583 6.26927 17.9969 6.26927ZM9.93021 11.4026C9.93021 9.26319 10.7801 7.2114 12.2929 5.69861C13.8057 4.18582 15.8575 3.33594 17.9969 3.33594C20.1363 3.33594 22.1881 4.18582 23.7009 5.69861C25.2137 7.2114 26.0635 9.26319 26.0635 11.4026C26.0635 13.542 25.2137 15.5938 23.7009 17.1066C22.1881 18.6194 20.1363 19.4693 17.9969 19.4693C15.8575 19.4693 13.8057 18.6194 12.2929 17.1066C10.7801 15.5938 9.93021 13.542 9.93021 11.4026ZM4.79688 28.2693C4.79688 26.3244 5.56949 24.4591 6.94476 23.0838C8.32003 21.7086 10.1853 20.9359 12.1302 20.9359H23.8635C25.8085 20.9359 27.6737 21.7086 29.049 23.0838C30.4243 24.4591 31.1969 26.3244 31.1969 28.2693V32.6693H4.79688V28.2693ZM12.1302 23.8693C10.9633 23.8693 9.8441 24.3328 9.01894 25.158C8.19378 25.9832 7.73021 27.1023 7.73021 28.2693V29.7359H28.2635V28.2693C28.2635 27.1023 27.8 25.9832 26.9748 25.158C26.1497 24.3328 25.0305 23.8693 23.8635 23.8693H12.1302Z" fill="black"/>
</g>
</svg>
