<svg width="56" height="56" viewBox="0 0 56 56" fill="none" xmlns="http://www.w3.org/2000/svg">
<circle cx="28" cy="28" r="28" fill="#FF606F"/>
<g clip-path="url(#clip0_901_4161)">
<path d="M28.434 29.8662L22.309 26.3662C22.1769 26.2906 22.0273 26.2507 21.875 26.2507C21.7227 26.2507 21.5731 26.2906 21.441 26.3662L15.316 29.8662C15.1821 29.9427 15.0708 30.0533 14.9933 30.1866C14.9159 30.32 14.875 30.4715 14.875 30.6257V37.6257C14.875 37.78 14.9159 37.9314 14.9933 38.0648C15.0708 38.1982 15.1821 38.3087 15.316 38.3852L21.441 41.8852C21.5732 41.9608 21.7228 42.0006 21.875 42.0006C22.0272 42.0006 22.1768 41.9608 22.309 41.8852L28.434 38.3852C28.5679 38.3087 28.6792 38.1982 28.7567 38.0648C28.8341 37.9314 28.875 37.78 28.875 37.6257V30.6257C28.875 30.4715 28.8341 30.32 28.7567 30.1866C28.6792 30.0533 28.5679 29.9427 28.434 29.8662ZM21.875 28.1337L26.236 30.6257L21.875 33.1177L17.514 30.6257L21.875 28.1337ZM16.625 32.1334L21 34.6332V39.6181L16.625 37.1182V32.1334ZM22.75 39.6181V34.6332L27.125 32.1334V37.1182L22.75 39.6181ZM38.5 30.6257V35.0007C38.5 35.9659 37.7151 36.7507 36.75 36.7507H33.9745L35.3622 35.363L34.125 34.1257L30.625 37.6257L34.125 41.1257L35.3622 39.8885L33.9745 38.5007H36.75C38.6803 38.5007 40.25 36.931 40.25 35.0007V30.6257H38.5ZM29.316 27.1354L27.566 26.1352C27.4321 26.0587 27.3208 25.9482 27.2433 25.8148C27.1659 25.6814 27.125 25.53 27.125 25.3757V23.6257H28.875V24.8682L30.184 25.6164L29.316 27.1354ZM36.316 26.6165L35 27.3681V25.3757H33.25V27.3681L31.934 26.6156L31.066 28.1355L33.691 29.6352C33.8232 29.7108 33.9728 29.7506 34.125 29.7506C34.2772 29.7506 34.4268 29.7108 34.559 29.6352L37.184 28.1355L36.316 26.6156V26.6165ZM38.934 27.1354L38.066 25.6164L39.375 24.8682V23.6257H41.125V25.3757C41.125 25.53 41.0841 25.6814 41.0067 25.8148C40.9292 25.9482 40.8179 26.0587 40.684 26.1352L38.934 27.1354ZM36.309 21.636L35.441 20.1161L34.125 20.8686L32.809 20.1161L31.941 21.636L33.25 22.3832V23.6257H35V22.3832L36.309 21.636ZM40.684 17.6162L38.059 16.1156L37.191 17.6355L38.486 18.3757L37.191 19.116L38.059 20.635L39.375 19.8834V21.8757H41.125V18.3757C41.125 18.2215 41.0841 18.07 41.0067 17.9366C40.9292 17.8033 40.8179 17.6927 40.684 17.6162ZM35.441 16.6362L34.125 15.8829L32.809 16.6354L31.941 15.1146L33.691 14.1154C33.8232 14.0398 33.9728 14 34.125 14C34.2772 14 34.4268 14.0398 34.559 14.1154L36.309 15.1155L35.441 16.6345V16.6362ZM31.059 17.6355L30.191 16.1165L27.566 17.6162C27.4321 17.6927 27.3208 17.8033 27.2433 17.9366C27.1659 18.07 27.125 18.2215 27.125 18.3757V21.8757H28.875V19.8834L30.191 20.6359L31.059 19.116L29.764 18.3757L31.059 17.6355ZM21.875 14.8757L20.6378 16.113L22.0255 17.5007H19.25C17.3197 17.5007 15.75 19.0705 15.75 21.0007V25.3757H17.5V21.0007C17.5 20.0356 18.2849 19.2507 19.25 19.2507H22.0255L20.6378 20.6385L21.875 21.8757L25.375 18.3757L21.875 14.8757Z" fill="white"/>
</g>
<defs>
<clipPath id="clip0_901_4161">
<rect width="28" height="28" fill="white" transform="translate(14 14)"/>
</clipPath>
</defs>
</svg>
