<svg width="56" height="56" viewBox="0 0 56 56" fill="none" xmlns="http://www.w3.org/2000/svg">
<circle cx="28" cy="28" r="28" fill="#FECC07"/>
<path d="M16.3333 16.332H39.6666V30.332H37.3333V29.1654H18.6666V37.332H30.3333V39.6654H16.3333V16.332ZM18.6666 26.832H37.3333V18.6654H18.6666V26.832ZM20.9976 21.582H23.3356V23.92H20.9976V21.582ZM33.6909 32.04L36.1666 34.5157L38.6423 32.04L40.2919 33.6909L37.8162 36.1654L40.2919 38.6399L38.6411 40.2907L36.1678 37.815L33.6921 40.2895L32.0424 38.6399L34.5169 36.1654L32.0424 33.6909L33.6909 32.04ZM20.9976 32.082H23.3356V34.42H20.9976V32.082Z" fill="white"/>
</svg>
