<svg width="20" height="20" viewBox="0 0 20 20" fill="none" xmlns="http://www.w3.org/2000/svg">
<g id="upload-cloud-02">
<path id="Vector" d="M19.1693 9.9987L15.8359 6.66536V9.16536H8.33594V10.832H15.8359V13.332M0.835938 14.9987V4.9987C0.835938 4.55667 1.01153 4.13275 1.32409 3.82019C1.63665 3.50763 2.06058 3.33203 2.5026 3.33203H12.5026C12.9446 3.33203 13.3686 3.50763 13.6811 3.82019C13.9937 4.13275 14.1693 4.55667 14.1693 4.9987V7.4987H12.5026V4.9987H2.5026V14.9987H12.5026V12.4987H14.1693V14.9987C14.1693 15.4407 13.9937 15.8646 13.6811 16.1772C13.3686 16.4898 12.9446 16.6654 12.5026 16.6654H2.5026C2.06058 16.6654 1.63665 16.4898 1.32409 16.1772C1.01153 15.8646 0.835938 15.4407 0.835938 14.9987Z" fill="#344054"/>
</g>
</svg>
