<svg width="69" height="16" viewBox="0 0 69 16" fill="none" xmlns="http://www.w3.org/2000/svg">
<path d="M7.96094 9.63281H3.71875L2.92188 12H0.40625L4.51562 0.484375H7.23438L11.3125 12H8.70312L7.96094 9.63281ZM7.28906 7.64844L5.85156 3.11719L4.36719 7.64844H7.28906ZM18.7812 12L17.4453 5.79688L16.0938 12H13.7812L11.3906 3.48438H13.7812L15.1094 9.59375L16.3359 3.48438H18.5938L19.8906 9.61719L21.2188 3.48438H23.5391L21.0703 12H18.7812ZM25.0938 4.40625C25.6823 3.65625 26.6927 3.28125 28.125 3.28125C29.0573 3.28125 29.8854 3.46615 30.6094 3.83594C31.3333 4.20573 31.6953 4.90365 31.6953 5.92969V9.83594C31.6953 10.1068 31.7005 10.4349 31.7109 10.8203C31.7266 11.112 31.7708 11.3099 31.8438 11.4141C31.9167 11.5182 32.026 11.6042 32.1719 11.6719V12H29.75C29.6823 11.8281 29.6354 11.6667 29.6094 11.5156C29.5833 11.3646 29.5625 11.1927 29.5469 11C29.2396 11.3333 28.8854 11.6172 28.4844 11.8516C28.0052 12.1276 27.4635 12.2656 26.8594 12.2656C26.0885 12.2656 25.4505 12.0469 24.9453 11.6094C24.4453 11.1667 24.1953 10.5417 24.1953 9.73438C24.1953 8.6875 24.599 7.92969 25.4062 7.46094C25.849 7.20573 26.5 7.02344 27.3594 6.91406L28.1172 6.82031C28.5286 6.76823 28.8229 6.70312 29 6.625C29.3177 6.48958 29.4766 6.27865 29.4766 5.99219C29.4766 5.64323 29.3542 5.40365 29.1094 5.27344C28.8698 5.13802 28.5156 5.07031 28.0469 5.07031C27.5208 5.07031 27.1484 5.20052 26.9297 5.46094C26.7734 5.65365 26.6693 5.91406 26.6172 6.24219H24.4688C24.5156 5.4974 24.724 4.88542 25.0938 4.40625ZM26.75 10.3906C26.9583 10.5625 27.2135 10.6484 27.5156 10.6484C27.9948 10.6484 28.4349 10.5078 28.8359 10.2266C29.2422 9.94531 29.4531 9.43229 29.4688 8.6875V7.85938C29.3281 7.94792 29.1849 8.02083 29.0391 8.07812C28.8984 8.13021 28.7031 8.17969 28.4531 8.22656L27.9531 8.32031C27.4844 8.40365 27.1484 8.50521 26.9453 8.625C26.6016 8.82812 26.4297 9.14323 26.4297 9.57031C26.4297 9.95052 26.5365 10.224 26.75 10.3906ZM37.1406 9.76562L38.8984 3.48438H41.2656L38.3438 11.8594C37.7812 13.474 37.3359 14.474 37.0078 14.8594C36.6797 15.25 36.0234 15.4453 35.0391 15.4453C34.8411 15.4453 34.6823 15.4427 34.5625 15.4375C34.4427 15.4375 34.263 15.4297 34.0234 15.4141V13.6328L34.3047 13.6484C34.5234 13.6589 34.7318 13.651 34.9297 13.625C35.1276 13.599 35.2943 13.5391 35.4297 13.4453C35.5599 13.3568 35.6797 13.1719 35.7891 12.8906C35.9036 12.6094 35.9505 12.4375 35.9297 12.375L32.8047 3.48438H35.2812L37.1406 9.76562ZM50.3359 0.5V12H48.1719V10.8203C47.8542 11.3255 47.4922 11.6927 47.0859 11.9219C46.6797 12.151 46.1745 12.2656 45.5703 12.2656C44.5755 12.2656 43.737 11.8646 43.0547 11.0625C42.3776 10.2552 42.0391 9.22135 42.0391 7.96094C42.0391 6.50781 42.3724 5.36458 43.0391 4.53125C43.7109 3.69792 44.6068 3.28125 45.7266 3.28125C46.2422 3.28125 46.7005 3.39583 47.1016 3.625C47.5026 3.84896 47.8281 4.16146 48.0781 4.5625V0.5H50.3359ZM44.3359 7.79688C44.3359 8.58333 44.4922 9.21094 44.8047 9.67969C45.112 10.1536 45.5807 10.3906 46.2109 10.3906C46.8411 10.3906 47.3203 10.1562 47.6484 9.6875C47.9766 9.21875 48.1406 8.61198 48.1406 7.86719C48.1406 6.82552 47.8776 6.08073 47.3516 5.63281C47.0286 5.36198 46.6536 5.22656 46.2266 5.22656C45.5755 5.22656 45.0964 5.47396 44.7891 5.96875C44.487 6.45833 44.3359 7.06771 44.3359 7.79688ZM52.6875 4.40625C53.276 3.65625 54.2865 3.28125 55.7188 3.28125C56.651 3.28125 57.4792 3.46615 58.2031 3.83594C58.9271 4.20573 59.2891 4.90365 59.2891 5.92969V9.83594C59.2891 10.1068 59.2943 10.4349 59.3047 10.8203C59.3203 11.112 59.3646 11.3099 59.4375 11.4141C59.5104 11.5182 59.6198 11.6042 59.7656 11.6719V12H57.3438C57.276 11.8281 57.2292 11.6667 57.2031 11.5156C57.1771 11.3646 57.1562 11.1927 57.1406 11C56.8333 11.3333 56.4792 11.6172 56.0781 11.8516C55.599 12.1276 55.0573 12.2656 54.4531 12.2656C53.6823 12.2656 53.0443 12.0469 52.5391 11.6094C52.0391 11.1667 51.7891 10.5417 51.7891 9.73438C51.7891 8.6875 52.1927 7.92969 53 7.46094C53.4427 7.20573 54.0938 7.02344 54.9531 6.91406L55.7109 6.82031C56.1224 6.76823 56.4167 6.70312 56.5938 6.625C56.9115 6.48958 57.0703 6.27865 57.0703 5.99219C57.0703 5.64323 56.9479 5.40365 56.7031 5.27344C56.4635 5.13802 56.1094 5.07031 55.6406 5.07031C55.1146 5.07031 54.7422 5.20052 54.5234 5.46094C54.3672 5.65365 54.263 5.91406 54.2109 6.24219H52.0625C52.1094 5.4974 52.3177 4.88542 52.6875 4.40625ZM54.3438 10.3906C54.5521 10.5625 54.8073 10.6484 55.1094 10.6484C55.5885 10.6484 56.0286 10.5078 56.4297 10.2266C56.8359 9.94531 57.0469 9.43229 57.0625 8.6875V7.85938C56.9219 7.94792 56.7786 8.02083 56.6328 8.07812C56.4922 8.13021 56.2969 8.17969 56.0469 8.22656L55.5469 8.32031C55.0781 8.40365 54.7422 8.50521 54.5391 8.625C54.1953 8.82812 54.0234 9.14323 54.0234 9.57031C54.0234 9.95052 54.1302 10.224 54.3438 10.3906ZM64.7344 9.76562L66.4922 3.48438H68.8594L65.9375 11.8594C65.375 13.474 64.9297 14.474 64.6016 14.8594C64.2734 15.25 63.6172 15.4453 62.6328 15.4453C62.4349 15.4453 62.276 15.4427 62.1562 15.4375C62.0365 15.4375 61.8568 15.4297 61.6172 15.4141V13.6328L61.8984 13.6484C62.1172 13.6589 62.3255 13.651 62.5234 13.625C62.7214 13.599 62.888 13.5391 63.0234 13.4453C63.1536 13.3568 63.2734 13.1719 63.3828 12.8906C63.4974 12.6094 63.5443 12.4375 63.5234 12.375L60.3984 3.48438H62.875L64.7344 9.76562Z" fill="black"/>
</svg>
