<svg width="49" height="41" viewBox="0 0 49 41" fill="none" xmlns="http://www.w3.org/2000/svg">
<g id="Group 1000003621">
<g id="Vector 376">
<path d="M24.9925 14.5081V8.20044H31.854C40.7373 8.20044 47.9386 15.4018 47.9386 24.2851C47.9386 33.1684 40.7373 40.3697 31.854 40.3697H23.6018H15.5856H7.56934V38.7928V36.4681V34.1434V25.2312H14.1924V34.1434H20.8205H32.4034C37.848 34.1434 42.2617 29.7297 42.2617 24.2851C42.2617 18.8854 37.8844 14.5081 32.4847 14.5081H24.9925Z" fill="#EE511E"/>
<path d="M7.56934 34.1434V25.2312H14.1924V34.1434M7.56934 34.1434H14.1924M7.56934 34.1434V36.4681V38.7928V40.3697H15.5856H23.6018H31.854C40.7373 40.3697 47.9386 33.1684 47.9386 24.2851V24.2851C47.9386 15.4018 40.7373 8.20044 31.854 8.20044H24.9925V14.5081H32.4847C37.8844 14.5081 42.2617 18.8854 42.2617 24.2851V24.2851V24.2851C42.2617 29.7297 37.848 34.1434 32.4034 34.1434H20.8205H14.1924" stroke="#EE511E"/>
</g>
<g id="Group 1000003617">
<rect id="Rectangle 30122" x="8.2002" width="6.3077" height="22.0769" fill="#EE511E"/>
<rect id="Rectangle 30123" y="14.5076" width="6.3077" height="22.0769" transform="rotate(-90 0 14.5076)" fill="#EE511E"/>
</g>
</g>
</svg>
